/* XPM */
static char *f3f0bdb0ca5d4db9ba52edf2d7028a3bt1Le1yudCdjHv6Ew[] = {
/* columns rows colors chars-per-pixel */
"64 64 13 1 ",
"  c white",
". c #888888",
"X c #E1E1E1",
"o c #747474",
"O c black",
"+ c #222222",
"@ c gray93",
"# c #FEFEFE",
"$ c gray70",
"% c #1E1E1E",
"& c gray92",
"* c #DDDDDD",
"= c #868686",
/* pixels */
"                                                                ",
"                                                                ",
"                                                                ",
"                                                                ",
"                                                                ",
"                                                                ",
"                                                                ",
"                                                                ",
"                                                                ",
"                                                                ",
"                                                                ",
"                                                                ",
"                                                                ",
"                                                                ",
"                                                                ",
"                                                                ",
"                         .X                                     ",
"                        oO+X                                    ",
"                       oOOO+X                                   ",
"                      oOOOOO+@                                  ",
"                     oOOOOOOo                                   ",
"                    oOOOOOOo                                    ",
"                   oOOOOOOo                                     ",
"                  oOOOOOOo                                      ",
"                 oOOOOOOo                                       ",
"                oOOOOOOo                                        ",
"               oOOOOOOo                                         ",
"              oOOOOOOo                                          ",
"             oOOOOOOOOOOOOOOOOOOOOOOOOOOOOOOOOOOOO              ",
"            oOOOOOOOOOOOOOOOOOOOOOOOOOOOOOOOOOOOOO              ",
"           $OOOOOOOOOOOOOOOOOOOOOOOOOOOOOOOOOOOOOO              ",
"            oOOOOOOOOOOOOOOOOOOOOOOOOOOOOOOOOOOOOO              ",
"             oOOOOOOOOOOOOOOOOOOOOOOOOOOOOOOOOOOOO              ",
"              oOOOOOOo                                          ",
"               oOOOOOOo                                         ",
"                oOOOOOOo                                        ",
"                 oOOOOOOo                                       ",
"                  oOOOOOOo                                      ",
"                   oOOOOOOo                                     ",
"                    oOOOOOOo                                    ",
"                     oOOOOOOo                                   ",
"                      oOOOOO%&                                  ",
"                       oOOO%*                                   ",
"                        oO%*                                    ",
"                         =*                                     ",
"                                                                ",
"                                                                ",
"                                                                ",
"                                                                ",
"                                                                ",
"                                                                ",
"                                                                ",
"                                                                ",
"                                                                ",
"                                                                ",
"                                                                ",
"                                                                ",
"                                                                ",
"                                                                ",
"                                                                ",
"                                                                ",
"                                                                ",
"                                                                ",
"                                                                "
};
