/* XPM */
static char *a4b2fd7065ca48da9b44f3cfd5c0ca5eRE3ptZhHvme41qXY[] = {
/* columns rows colors chars-per-pixel */
"16 16 57 1 ",
"  c #5B823E",
". c #5E863F",
"X c #669344",
"o c #5F8940",
"O c #659243",
"+ c #608940",
"@ c #5E8740",
"# c #5F8840",
"$ c #618A41",
"% c #5A803D",
"& c #628D42",
"* c #649043",
"= c #628C41",
"- c #618B41",
"; c #5D853F",
": c #608A41",
"> c #638D42",
", c #5E873F",
"< c #597F3D",
"1 c #5F8740",
"2 c #6A9845",
"3 c #689544",
"4 c #618C41",
"5 c #5C833E",
"6 c #5A813E",
"7 c #659043",
"8 c #669243",
"9 c #699745",
"0 c #638E42",
"q c #699845",
"w c #648F42",
"e c #699645",
"r c #679444",
"t c #6B9946",
"y c #587D3C",
"u c #6B9A46",
"i c #6C9C47",
"p c #59803D",
"a c #638F42",
"s c #5C843F",
"d c #659143",
"f c #6A9946",
"g c #689645",
"h c #587E3D",
"j c #6C9B46",
"k c #679544",
"l c #6E9F47",
"z c #6D9D47",
"x c #6D9C47",
"c c #6E9E47",
"v c #72A449",
"b c #6E9F48",
"n c #6FA048",
"m c #6B9B46",
"M c #70A148",
"N c #53763A",
"B c #75A84B",
/* pixels */
" .XoO+@#$#o%&*=-",
";:&>*. ,$;<&&-X1",
"#23>4-&<o56#+&--",
"37890o#&@10&qw*8",
"erX*o:=-=+7r008+",
"*t0y%.+0*u8iXurp",
"oa-s1-.#d:3r8f2#",
"5*dO-;o:++808**+",
"5g8d==r-=>dg+*;+",
"*we9d*OX+=fd+#%h",
"q>ujd:*f@=g9d-#;",
"Xj98w0k88ej0r-37",
"0*legdww8k8zgOu0",
"d82xq0drucjvbggX",
"=-*#.33rjbnimMn9",
"Ndd:  o:w*w.*nfB"
};
