/* XPM */
static char *a4f5a43f91ea4369efb3067c1b27c763l8a73maMTLV5QuvU[] = {
/* columns rows colors chars-per-pixel */
"64 64 41 1 ",
"  c None",
". c black",
"X c #030B1A",
"o c #05081A",
"O c #1A1810",
"+ c #560B0A",
"@ c #730F0D",
"# c #4F1727",
"$ c #511427",
"% c #65172A",
"& c #565235",
"* c #635F3E",
"= c #111D56",
"- c #0B2556",
"; c #2E385F",
": c #0F2D6D",
"> c #0D2E6C",
", c #16246C",
"< c #16246D",
"1 c #172D7F",
"2 c #1A2A7F",
"3 c #1D3275",
"4 c #262873",
"5 c #252975",
"6 c #343F72",
"7 c #48296C",
"8 c #40326C",
"9 c #605E4A",
"0 c #6C6743",
"q c #716C46",
"w c #736E48",
"e c #767356",
"r c #737674",
"t c #FF221E",
"y c #1A2B82",
"u c #113682",
"i c #1F359C",
"p c #173E9C",
"a c #3557FF",
"s c #216EFF",
"d c #FFF5A0",
/* pixels */
"                                                                ",
"                                                                ",
"                                                                ",
"                                                                ",
"                                                                ",
"                                                                ",
"                                                                ",
"                                                                ",
"                                                                ",
"                                                                ",
"                                                                ",
"                                ....O&                          ",
"                            O&&&&&&&*d0                         ",
"                          O&0dddddddwdd0                        ",
"                         O0ddddddddddddd0                       ",
"                         &ddddddddddddddd&                      ",
"                         0dd00dddddd00ddd&                      ",
"                        &ddd&&dddddw*0ddd&                      ",
"                        &ddd00ddddddddddd0                      ",
"                        &dddddddwddddddddd&                     ",
"                       O0dddddddwdddddwddd&                     ",
"                       &dddddddddddddd0wdd&                     ",
"                       &ddddddddddwwwwqddd&                     ",
"                        0ddddddddddddddddd&                     ",
"                         &0dddddddddddddd0                      ",
"                           &&9reddddddd0&O                      ",
"                        o==o.=a6rrrrrrr;o.X-X                   ",
"                      o=,aa,=,aaaaaaaaaa,=>s>-                  ",
"                     o,aaaaiaaaaaaaaaaaaaapsss-                 ",
"                    o,aaaay2aaaaaaaaaaaaaapsss>X                ",
"                    =aaaaaiaaaaaaaaaaaaaaapssss>X               ",
"                   o,aaaaaiaaaaaaaaaaaaaaapsssss>X              ",
"                   =aaaaaaiaaaaaaaaaaaaaaapssssss>              ",
"                  o,aaaaaaiaaaaaaaaaaaaaaa1ussssss-             ",
"                  =aaaaaay2aaaaaaaaaaaaaaaapssssss-             ",
"                  =aaaaaaiaaaaaaaaaaaaaaaaapssssss-             ",
"                  =aaaaaaiaaaaaaaaaaaaaaaaapssssss-             ",
"                  =aaaaaaiaaaaaaaaaaaaaaaaapssssss-             ",
"                  =aaaaaaiaaaaaaaaaaaaaaaaapssssss-             ",
"                  =aaaaaaiaaaaaaaaaaaaaaaaapssssss-             ",
"                  =aaaaaaiaaaaaaaaaaaaaaaaapssssss-             ",
"                  =aaaaaaiaaaaaaaaaaaaaaaaapssssss-             ",
"                  =aaaaaay2aaaaaaaaaaaaaaaapssssss-             ",
"                  =aaaaaaaiaaaaaaaaaaaaaaaapssssss-             ",
"                  o,aaaaaaiaaaaaaaaaaaaa4773ssssss-             ",
"                   =aaaaaa57777777777777%tt8sssss>              ",
"                   o,aaaaa7tttttttttttttttt8sss>-X              ",
"                    o=,aaa7tttttttttttttttt#---X                ",
"                      o===$tttttttttttttttt+                    ",
"                          +tttttttttttttttt+                    ",
"                          +ttttttt@tttttttt+                    ",
"                          +ttttttt@tttttttt+                    ",
"                          +ttttttt@tttttttt+                    ",
"                          +ttttttt@tttttttt+                    ",
"                          +ttttttt@tttttttt+                    ",
"                          +ttttttt@tttttttt+                    ",
"                          +ttttttt@tttttttt+                    ",
"                          +ttttttt@tttttttt+                    ",
"                          +ttttttt@tttttttt+                    ",
"                          +ttttttt@tttttttt+                    ",
"                          +ttttttt@tttttttt+                    ",
"                          +ttttttt@tttttttt+                    ",
"                          +ttttttt@tttttttt+                    ",
"                          +ttttttt@tttttttt+                    "
};
